<?xml version="1.0" encoding="UTF-8" standalone="no"?>
<!DOCTYPE svg PUBLIC "-//W3C//DTD SVG 1.1//EN"
 "http://www.w3.org/Graphics/SVG/1.1/DTD/svg11.dtd">
<!-- Generated by graphviz version 2.38.0 (20140413.2041)
 -->
<!-- Title: G Pages: 1 -->
<svg width="151pt" height="576pt"
 viewBox="0.00 0.00 150.51 576.00" xmlns="http://www.w3.org/2000/svg" xmlns:xlink="http://www.w3.org/1999/xlink">
<g id="graph0" class="graph" transform="scale(0.407932 0.407932) rotate(0) translate(4 1408)">
<title>G</title>
<polygon fill="white" stroke="none" points="-4,4 -4,-1408 364.964,-1408 364.964,4 -4,4"/>
<!-- fastq 1 -->
<g id="node1" class="node"><title>fastq 1</title>
<text text-anchor="middle" x="107.772" y="-1309.8" font-family="Times,serif" font-size="14.00">fastq 1</text>
</g>
<!-- blastn -->
<g id="node11" class="node"><title>blastn</title>
<polygon fill="none" stroke="black" points="153.772,-1260 99.7725,-1260 99.7725,-1224 153.772,-1224 153.772,-1260"/>
<text text-anchor="middle" x="126.772" y="-1237.8" font-family="Times,serif" font-size="14.00">blastn</text>
</g>
<!-- fastq 1&#45;&gt;blastn -->
<g id="edge6" class="edge"><title>fastq 1&#45;&gt;blastn</title>
<path fill="none" stroke="black" d="M112.469,-1295.7C114.586,-1287.9 117.134,-1278.51 119.49,-1269.83"/>
<polygon fill="black" stroke="black" points="122.888,-1270.67 122.13,-1260.1 116.132,-1268.84 122.888,-1270.67"/>
</g>
<!-- collect_hits.py -->
<g id="node12" class="node"><title>collect_hits.py</title>
<polygon fill="none" stroke="black" points="106.811,-1116 8.73437,-1116 8.73437,-1080 106.811,-1080 106.811,-1116"/>
<text text-anchor="middle" x="57.7725" y="-1093.8" font-family="Times,serif" font-size="14.00">collect_hits.py</text>
</g>
<!-- fastq 1&#45;&gt;collect_hits.py -->
<g id="edge9" class="edge"><title>fastq 1&#45;&gt;collect_hits.py</title>
<path fill="none" stroke="black" d="M101.786,-1295.95C98.2908,-1285.63 93.9567,-1272.15 90.7725,-1260 78.5564,-1213.38 68.0947,-1158.19 62.3903,-1126.04"/>
<polygon fill="black" stroke="black" points="65.8158,-1125.31 60.6425,-1116.06 58.9208,-1126.51 65.8158,-1125.31"/>
</g>
<!-- fastq 2 -->
<g id="node2" class="node"><title>fastq 2</title>
<text text-anchor="middle" x="35.7725" y="-1309.8" font-family="Times,serif" font-size="14.00">fastq 2</text>
</g>
<!-- fastq 2&#45;&gt;blastn -->
<g id="edge5" class="edge"><title>fastq 2&#45;&gt;blastn</title>
<path fill="none" stroke="black" d="M58.2668,-1295.7C69.7275,-1286.88 83.8308,-1276.03 96.256,-1266.47"/>
<polygon fill="black" stroke="black" points="98.7446,-1268.98 104.537,-1260.1 94.4766,-1263.43 98.7446,-1268.98"/>
</g>
<!-- fastq 2&#45;&gt;collect_hits.py -->
<g id="edge10" class="edge"><title>fastq 2&#45;&gt;collect_hits.py</title>
<path fill="none" stroke="black" d="M35.4582,-1295.96C35.1719,-1266.45 35.7046,-1203.99 43.7725,-1152 45.0859,-1143.54 47.2062,-1134.47 49.4036,-1126.28"/>
<polygon fill="black" stroke="black" points="52.8233,-1127.05 52.1735,-1116.47 46.0868,-1125.14 52.8233,-1127.05"/>
</g>
<!-- small fastq 1 -->
<g id="node3" class="node"><title>small fastq 1</title>
<text text-anchor="middle" x="43.7725" y="-1021.8" font-family="Times,serif" font-size="14.00">small fastq 1</text>
</g>
<!-- bwa mem -->
<g id="node13" class="node"><title>bwa mem</title>
<polygon fill="none" stroke="black" points="186.09,-972 115.455,-972 115.455,-936 186.09,-936 186.09,-972"/>
<text text-anchor="middle" x="150.772" y="-949.8" font-family="Times,serif" font-size="14.00">bwa mem</text>
</g>
<!-- small fastq 1&#45;&gt;bwa mem -->
<g id="edge14" class="edge"><title>small fastq 1&#45;&gt;bwa mem</title>
<path fill="none" stroke="black" d="M69.9476,-1007.88C83.8083,-998.808 101.014,-987.552 115.983,-977.759"/>
<polygon fill="black" stroke="black" points="118.044,-980.593 124.497,-972.19 114.212,-974.735 118.044,-980.593"/>
</g>
<!-- small fastq 2 -->
<g id="node4" class="node"><title>small fastq 2</title>
<text text-anchor="middle" x="149.772" y="-1021.8" font-family="Times,serif" font-size="14.00">small fastq 2</text>
</g>
<!-- small fastq 2&#45;&gt;bwa mem -->
<g id="edge15" class="edge"><title>small fastq 2&#45;&gt;bwa mem</title>
<path fill="none" stroke="black" d="M150.02,-1007.7C150.13,-999.983 150.262,-990.712 150.385,-982.112"/>
<polygon fill="black" stroke="black" points="153.885,-982.153 150.528,-972.104 146.886,-982.053 153.885,-982.153"/>
</g>
<!-- fasta reference -->
<g id="node5" class="node"><title>fasta reference</title>
<text text-anchor="middle" x="240.772" y="-1309.8" font-family="Times,serif" font-size="14.00">fasta reference</text>
</g>
<!-- fasta reference&#45;&gt;blastn -->
<g id="edge7" class="edge"><title>fasta reference&#45;&gt;blastn</title>
<path fill="none" stroke="black" d="M212.885,-1295.88C197.757,-1286.59 178.889,-1275 162.674,-1265.04"/>
<polygon fill="black" stroke="black" points="164.332,-1261.96 153.979,-1259.71 160.669,-1267.92 164.332,-1261.96"/>
</g>
<!-- fasta reference&#45;&gt;bwa mem -->
<g id="edge16" class="edge"><title>fasta reference&#45;&gt;bwa mem</title>
<path fill="none" stroke="black" d="M236.928,-1295.61C231.376,-1268.94 221.772,-1216.27 221.772,-1171 221.772,-1171 221.772,-1171 221.772,-1097 221.772,-1056.55 221.918,-1043.63 202.772,-1008 197.062,-997.373 188.577,-987.433 180.11,-979.098"/>
<polygon fill="black" stroke="black" points="182.438,-976.483 172.743,-972.209 177.657,-981.596 182.438,-976.483"/>
</g>
<!-- samtools mpileup -->
<g id="node19" class="node"><title>samtools mpileup</title>
<polygon fill="none" stroke="black" points="255.435,-612 140.11,-612 140.11,-576 255.435,-576 255.435,-612"/>
<text text-anchor="middle" x="197.772" y="-589.8" font-family="Times,serif" font-size="14.00">samtools mpileup</text>
</g>
<!-- fasta reference&#45;&gt;samtools mpileup -->
<g id="edge22" class="edge"><title>fasta reference&#45;&gt;samtools mpileup</title>
<path fill="none" stroke="black" d="M244.617,-1295.61C250.169,-1268.94 259.772,-1216.27 259.772,-1171 259.772,-1171 259.772,-1171 259.772,-737 259.772,-693.497 235.031,-648.29 216.806,-620.892"/>
<polygon fill="black" stroke="black" points="219.464,-618.579 210.921,-612.312 213.691,-622.538 219.464,-618.579"/>
</g>
<!-- bcftools consensus -->
<g id="node26" class="node"><title>bcftools consensus</title>
<polygon fill="none" stroke="black" points="320.649,-108 198.896,-108 198.896,-72 320.649,-72 320.649,-108"/>
<text text-anchor="middle" x="259.772" y="-85.8" font-family="Times,serif" font-size="14.00">bcftools consensus</text>
</g>
<!-- fasta reference&#45;&gt;bcftools consensus -->
<g id="edge32" class="edge"><title>fasta reference&#45;&gt;bcftools consensus</title>
<path fill="none" stroke="black" d="M252.583,-1295.96C269.279,-1270.16 297.772,-1219.08 297.772,-1171 297.772,-1171 297.772,-1171 297.772,-233 297.772,-191.633 282.538,-145.722 271.361,-117.605"/>
<polygon fill="black" stroke="black" points="274.493,-116.019 267.462,-108.093 268.016,-118.673 274.493,-116.019"/>
</g>
<!-- tsv blastn output -->
<g id="node6" class="node"><title>tsv blastn output</title>
<text text-anchor="middle" x="139.772" y="-1165.8" font-family="Times,serif" font-size="14.00">tsv blastn output</text>
</g>
<!-- tsv blastn output&#45;&gt;collect_hits.py -->
<g id="edge11" class="edge"><title>tsv blastn output&#45;&gt;collect_hits.py</title>
<path fill="none" stroke="black" d="M119.503,-1151.7C109.275,-1142.97 96.7113,-1132.24 85.5942,-1122.75"/>
<polygon fill="black" stroke="black" points="87.6871,-1119.94 77.809,-1116.1 83.1422,-1125.26 87.6871,-1119.94"/>
</g>
<!-- bam file -->
<g id="node7" class="node"><title>bam file</title>
<text text-anchor="middle" x="179.772" y="-661.8" font-family="Times,serif" font-size="14.00">bam file</text>
</g>
<!-- bam file&#45;&gt;samtools mpileup -->
<g id="edge21" class="edge"><title>bam file&#45;&gt;samtools mpileup</title>
<path fill="none" stroke="black" d="M184.222,-647.697C186.227,-639.898 188.642,-630.509 190.874,-621.829"/>
<polygon fill="black" stroke="black" points="194.273,-622.661 193.374,-612.104 187.494,-620.918 194.273,-622.661"/>
</g>
<!-- vcf file -->
<g id="node8" class="node"><title>vcf file</title>
<text text-anchor="middle" x="191.772" y="-373.8" font-family="Times,serif" font-size="14.00">vcf file</text>
</g>
<!-- bcftools filter -->
<g id="node24" class="node"><title>bcftools filter</title>
<polygon fill="none" stroke="black" points="230.317,-324 139.228,-324 139.228,-288 230.317,-288 230.317,-324"/>
<text text-anchor="middle" x="184.772" y="-301.8" font-family="Times,serif" font-size="14.00">bcftools filter</text>
</g>
<!-- vcf file&#45;&gt;bcftools filter -->
<g id="edge27" class="edge"><title>vcf file&#45;&gt;bcftools filter</title>
<path fill="none" stroke="black" d="M190.042,-359.697C189.271,-351.983 188.344,-342.712 187.484,-334.112"/>
<polygon fill="black" stroke="black" points="190.961,-333.706 186.483,-324.104 183.995,-334.403 190.961,-333.706"/>
</g>
<!-- vcf file&#45;&gt;bcftools consensus -->
<g id="edge30" class="edge"><title>vcf file&#45;&gt;bcftools consensus</title>
<path fill="none" stroke="black" d="M212.983,-359.583C222.905,-350.157 233.824,-337.658 239.772,-324 269.878,-254.882 266.832,-163.444 262.888,-118.432"/>
<polygon fill="black" stroke="black" points="266.353,-117.902 261.912,-108.283 259.385,-118.572 266.353,-117.902"/>
</g>
<!-- consensus file -->
<g id="node9" class="node"><title>consensus file</title>
<text text-anchor="middle" x="259.772" y="-13.8" font-family="Times,serif" font-size="14.00">consensus file</text>
</g>
<!-- depth file -->
<g id="node10" class="node"><title>depth file</title>
<text text-anchor="middle" x="190.772" y="-157.8" font-family="Times,serif" font-size="14.00">depth file</text>
</g>
<!-- depth file&#45;&gt;bcftools consensus -->
<g id="edge31" class="edge"><title>depth file&#45;&gt;bcftools consensus</title>
<path fill="none" stroke="black" d="M207.829,-143.697C216.268,-135.135 226.597,-124.656 235.815,-115.304"/>
<polygon fill="black" stroke="black" points="238.385,-117.683 242.912,-108.104 233.4,-112.769 238.385,-117.683"/>
</g>
<!-- blastn&#45;&gt;tsv blastn output -->
<g id="edge8" class="edge"><title>blastn&#45;&gt;tsv blastn output</title>
<path fill="none" stroke="black" d="M129.986,-1223.7C131.419,-1215.98 133.14,-1206.71 134.737,-1198.11"/>
<polygon fill="black" stroke="black" points="138.211,-1198.58 136.596,-1188.1 131.329,-1197.3 138.211,-1198.58"/>
</g>
<!-- collect_hits.py&#45;&gt;small fastq 1 -->
<g id="edge13" class="edge"><title>collect_hits.py&#45;&gt;small fastq 1</title>
<path fill="none" stroke="black" d="M54.3118,-1079.7C52.769,-1071.98 50.915,-1062.71 49.1949,-1054.11"/>
<polygon fill="black" stroke="black" points="52.5866,-1053.22 47.1933,-1044.1 45.7225,-1054.6 52.5866,-1053.22"/>
</g>
<!-- collect_hits.py&#45;&gt;small fastq 2 -->
<g id="edge12" class="edge"><title>collect_hits.py&#45;&gt;small fastq 2</title>
<path fill="none" stroke="black" d="M80.514,-1079.7C92.2121,-1070.8 106.633,-1059.82 119.283,-1050.2"/>
<polygon fill="black" stroke="black" points="121.454,-1052.94 127.292,-1044.1 117.215,-1047.37 121.454,-1052.94"/>
</g>
<!-- samtools view -->
<g id="node14" class="node"><title>samtools view</title>
<polygon fill="none" stroke="black" points="200.267,-900 103.278,-900 103.278,-864 200.267,-864 200.267,-900"/>
<text text-anchor="middle" x="151.772" y="-877.8" font-family="Times,serif" font-size="14.00">samtools view</text>
</g>
<!-- bwa mem&#45;&gt;samtools view -->
<g id="edge17" class="edge"><title>bwa mem&#45;&gt;samtools view</title>
<path fill="none" stroke="black" d="M151.02,-935.697C151.13,-927.983 151.262,-918.712 151.385,-910.112"/>
<polygon fill="black" stroke="black" points="154.885,-910.153 151.528,-900.104 147.886,-910.053 154.885,-910.153"/>
</g>
<!-- novosort -->
<g id="node15" class="node"><title>novosort</title>
<polygon fill="none" stroke="black" points="189.272,-828 124.272,-828 124.272,-792 189.272,-792 189.272,-828"/>
<text text-anchor="middle" x="156.772" y="-805.8" font-family="Times,serif" font-size="14.00">novosort</text>
</g>
<!-- samtools view&#45;&gt;novosort -->
<g id="edge18" class="edge"><title>samtools view&#45;&gt;novosort</title>
<path fill="none" stroke="black" d="M153.008,-863.697C153.559,-855.983 154.222,-846.712 154.836,-838.112"/>
<polygon fill="black" stroke="black" points="158.329,-838.328 155.551,-828.104 151.347,-837.83 158.329,-838.328"/>
</g>
<!-- picard MarkDuplicates -->
<g id="node16" class="node"><title>picard MarkDuplicates</title>
<polygon fill="none" stroke="black" points="230.946,-756 86.5992,-756 86.5992,-720 230.946,-720 230.946,-756"/>
<text text-anchor="middle" x="158.772" y="-733.8" font-family="Times,serif" font-size="14.00">picard MarkDuplicates</text>
</g>
<!-- novosort&#45;&gt;picard MarkDuplicates -->
<g id="edge19" class="edge"><title>novosort&#45;&gt;picard MarkDuplicates</title>
<path fill="none" stroke="black" d="M157.267,-791.697C157.487,-783.983 157.752,-774.712 157.998,-766.112"/>
<polygon fill="black" stroke="black" points="161.497,-766.2 158.284,-756.104 154.499,-766 161.497,-766.2"/>
</g>
<!-- picard MarkDuplicates&#45;&gt;bam file -->
<g id="edge20" class="edge"><title>picard MarkDuplicates&#45;&gt;bam file</title>
<path fill="none" stroke="black" d="M163.963,-719.697C166.303,-711.898 169.12,-702.509 171.724,-693.829"/>
<polygon fill="black" stroke="black" points="175.12,-694.688 174.641,-684.104 168.415,-692.677 175.12,-694.688"/>
</g>
<!-- samtools index -->
<g id="node17" class="node"><title>samtools index</title>
<polygon fill="none" stroke="black" points="361.156,-1404 260.389,-1404 260.389,-1368 361.156,-1368 361.156,-1404"/>
<text text-anchor="middle" x="310.772" y="-1381.8" font-family="Times,serif" font-size="14.00">samtools index</text>
</g>
<!-- samtools index&#45;&gt;fasta reference -->
<g id="edge1" class="edge"><title>samtools index&#45;&gt;fasta reference</title>
<path fill="none" stroke="black" d="M293.469,-1367.7C284.907,-1359.14 274.429,-1348.66 265.077,-1339.3"/>
<polygon fill="black" stroke="black" points="267.423,-1336.7 257.877,-1332.1 262.473,-1341.65 267.423,-1336.7"/>
</g>
<!-- bwa index -->
<g id="node18" class="node"><title>bwa index</title>
<polygon fill="none" stroke="black" points="242.7,-1404 168.845,-1404 168.845,-1368 242.7,-1368 242.7,-1404"/>
<text text-anchor="middle" x="205.772" y="-1381.8" font-family="Times,serif" font-size="14.00">bwa index</text>
</g>
<!-- bwa index&#45;&gt;fasta reference -->
<g id="edge2" class="edge"><title>bwa index&#45;&gt;fasta reference</title>
<path fill="none" stroke="black" d="M214.424,-1367.7C218.408,-1359.73 223.223,-1350.1 227.64,-1341.26"/>
<polygon fill="black" stroke="black" points="230.879,-1342.61 232.22,-1332.1 224.618,-1339.48 230.879,-1342.61"/>
</g>
<!-- bcftools call -->
<g id="node20" class="node"><title>bcftools call</title>
<polygon fill="none" stroke="black" points="240.083,-540 155.462,-540 155.462,-504 240.083,-504 240.083,-540"/>
<text text-anchor="middle" x="197.772" y="-517.8" font-family="Times,serif" font-size="14.00">bcftools call</text>
</g>
<!-- samtools mpileup&#45;&gt;bcftools call -->
<g id="edge23" class="edge"><title>samtools mpileup&#45;&gt;bcftools call</title>
<path fill="none" stroke="black" d="M197.772,-575.697C197.772,-567.983 197.772,-558.712 197.772,-550.112"/>
<polygon fill="black" stroke="black" points="201.273,-550.104 197.772,-540.104 194.273,-550.104 201.273,-550.104"/>
</g>
<!-- bgzip -->
<g id="node21" class="node"><title>bgzip</title>
<polygon fill="none" stroke="black" points="224.772,-468 170.772,-468 170.772,-432 224.772,-432 224.772,-468"/>
<text text-anchor="middle" x="197.772" y="-445.8" font-family="Times,serif" font-size="14.00">bgzip</text>
</g>
<!-- bcftools call&#45;&gt;bgzip -->
<g id="edge24" class="edge"><title>bcftools call&#45;&gt;bgzip</title>
<path fill="none" stroke="black" d="M197.772,-503.697C197.772,-495.983 197.772,-486.712 197.772,-478.112"/>
<polygon fill="black" stroke="black" points="201.273,-478.104 197.772,-468.104 194.273,-478.104 201.273,-478.104"/>
</g>
<!-- bgzip&#45;&gt;vcf file -->
<g id="edge25" class="edge"><title>bgzip&#45;&gt;vcf file</title>
<path fill="none" stroke="black" d="M196.289,-431.697C195.628,-423.983 194.834,-414.712 194.096,-406.112"/>
<polygon fill="black" stroke="black" points="197.58,-405.769 193.239,-396.104 190.605,-406.367 197.58,-405.769"/>
</g>
<!-- tabix index -->
<g id="node22" class="node"><title>tabix index</title>
<polygon fill="none" stroke="black" points="152.87,-468 74.6748,-468 74.6748,-432 152.87,-432 152.87,-468"/>
<text text-anchor="middle" x="113.772" y="-445.8" font-family="Times,serif" font-size="14.00">tabix index</text>
</g>
<!-- tabix index&#45;&gt;vcf file -->
<g id="edge26" class="edge"><title>tabix index&#45;&gt;vcf file</title>
<path fill="none" stroke="black" d="M133.053,-431.697C142.688,-423.05 154.501,-412.449 164.999,-403.027"/>
<polygon fill="black" stroke="black" points="167.609,-405.388 172.713,-396.104 162.933,-400.179 167.609,-405.388"/>
</g>
<!-- formatblastdb -->
<g id="node23" class="node"><title>formatblastdb</title>
<polygon fill="none" stroke="black" points="118.532,-1404 25.0134,-1404 25.0134,-1368 118.532,-1368 118.532,-1404"/>
<text text-anchor="middle" x="71.7725" y="-1381.8" font-family="Times,serif" font-size="14.00">formatblastdb</text>
</g>
<!-- formatblastdb&#45;&gt;fastq 1 -->
<g id="edge4" class="edge"><title>formatblastdb&#45;&gt;fastq 1</title>
<path fill="none" stroke="black" d="M80.6713,-1367.7C84.7693,-1359.73 89.7213,-1350.1 94.2652,-1341.26"/>
<polygon fill="black" stroke="black" points="97.5149,-1342.6 98.9759,-1332.1 91.2899,-1339.4 97.5149,-1342.6"/>
</g>
<!-- formatblastdb&#45;&gt;fastq 2 -->
<g id="edge3" class="edge"><title>formatblastdb&#45;&gt;fastq 2</title>
<path fill="none" stroke="black" d="M62.8736,-1367.7C58.7756,-1359.73 53.8237,-1350.1 49.2797,-1341.26"/>
<polygon fill="black" stroke="black" points="52.255,-1339.4 44.569,-1332.1 46.03,-1342.6 52.255,-1339.4"/>
</g>
<!-- bcftools query -->
<g id="node25" class="node"><title>bcftools query</title>
<polygon fill="none" stroke="black" points="232.253,-252 135.292,-252 135.292,-216 232.253,-216 232.253,-252"/>
<text text-anchor="middle" x="183.772" y="-229.8" font-family="Times,serif" font-size="14.00">bcftools query</text>
</g>
<!-- bcftools filter&#45;&gt;bcftools query -->
<g id="edge28" class="edge"><title>bcftools filter&#45;&gt;bcftools query</title>
<path fill="none" stroke="black" d="M184.525,-287.697C184.415,-279.983 184.283,-270.712 184.16,-262.112"/>
<polygon fill="black" stroke="black" points="187.659,-262.053 184.017,-252.104 180.66,-262.153 187.659,-262.053"/>
</g>
<!-- bcftools query&#45;&gt;depth file -->
<g id="edge29" class="edge"><title>bcftools query&#45;&gt;depth file</title>
<path fill="none" stroke="black" d="M185.503,-215.697C186.274,-207.983 187.201,-198.712 188.061,-190.112"/>
<polygon fill="black" stroke="black" points="191.55,-190.403 189.062,-180.104 184.584,-189.706 191.55,-190.403"/>
</g>
<!-- bcftools consensus&#45;&gt;consensus file -->
<g id="edge33" class="edge"><title>bcftools consensus&#45;&gt;consensus file</title>
<path fill="none" stroke="black" d="M259.772,-71.6966C259.772,-63.9827 259.772,-54.7125 259.772,-46.1124"/>
<polygon fill="black" stroke="black" points="263.273,-46.1043 259.772,-36.1043 256.273,-46.1044 263.273,-46.1043"/>
</g>
</g>
</svg>
